<svg xmlns="http://www.w3.org/2000/svg" width="523" height="411" version="1.2"><style>.s0{fill:#000}</style><g id="Layer"><path fill-rule="evenodd" d="M311.2 106.3c0 28.8-23.4 52.2-52.2 52.2-28.8 0-52.1-23.4-52.1-52.2 0-28.8 23.3-52.1 52.1-52.1s52.2 23.3 52.2 52.1zM229.5 120h59.3L259 80.2zM314.2 323.8c0 28.8-23.4 52.1-52.2 52.1-28.8 0-52.1-23.3-52.1-52.1s23.3-52.2 52.1-52.2 52.2 23.4 52.2 52.2zm-52.2 26 29.8-39.9h-59.5zM361.7 265.1c-28.8 0-52.1-23.4-52.1-52.2 0-28.7 23.3-52.1 52.1-52.1s52.2 23.4 52.2 52.1c0 28.8-23.4 52.2-52.2 52.2zm-13.6-81.7v59.3l39.7-29.8zM160.3 269.1c-28.8 0-52.2-23.4-52.2-52.2 0-28.7 23.4-52.1 52.2-52.1 28.8 0 52.1 23.4 52.1 52.1 0 28.8-23.3 52.2-52.1 52.2zM134.2 217l39.9 29.7v-59.5z" class="s0"/></g></svg>