<svg version="1.2" xmlns="http://www.w3.org/2000/svg" viewBox="0 0 523 411" width="523" height="411">
	<title>joystick-direction-svg</title>
	<style>
		.s0 { fill: #000000 } 
	</style>
	<g id="Layer">
		<path id="Layer" fill-rule="evenodd" class="s0" d="m311.2 106.3c0 28.8-23.4 52.2-52.2 52.2-28.8 0-52.1-23.4-52.1-52.2 0-28.8 23.3-52.1 52.1-52.1 28.8 0 52.2 23.3 52.2 52.1zm-81.7 13.7h59.3l-29.8-39.8z"/>
		<path id="Layer" fill-rule="evenodd" class="s0" d="m314.2 323.8c0 28.8-23.4 52.1-52.2 52.1-28.8 0-52.1-23.3-52.1-52.1 0-28.8 23.3-52.2 52.1-52.2 28.8 0 52.2 23.4 52.2 52.2zm-52.2 26l29.8-39.9h-59.5z"/>
		<path id="Layer" fill-rule="evenodd" class="s0" d="m361.7 265.1c-28.8 0-52.1-23.4-52.1-52.2 0-28.7 23.3-52.1 52.1-52.1 28.8 0 52.2 23.4 52.2 52.1 0 28.8-23.4 52.2-52.2 52.2zm-13.6-81.7v59.3l39.7-29.8z"/>
		<path id="Layer" fill-rule="evenodd" class="s0" d="m160.3 269.1c-28.8 0-52.2-23.4-52.2-52.2 0-28.7 23.4-52.1 52.2-52.1 28.8 0 52.1 23.4 52.1 52.1 0 28.8-23.3 52.2-52.1 52.2zm-26.1-52.1l39.9 29.7v-59.5z"/>
	</g>
</svg>