<?xml version="1.0" encoding="UTF-8"?>
<svg width="300pt" height="300pt" version="1.1" viewBox="0 0 700 700" xmlns="http://www.w3.org/2000/svg" xmlns:xlink="http://www.w3.org/1999/xlink">
 <g>
  <path d="m512.4 187.23c-0.375-8.3984-1.3086-16.613-2.8008-24.828-1.6797-8.2148-3.7344-16.426-6.5352-24.266-2.8008-7.8398-6.1602-15.68-10.078-22.961-3.9219-7.4648-8.3984-14.559-13.441-21.281-5.0391-6.7188-10.453-13.066-16.426-19.039-23.707-23.707-54.508-40.133-87.547-46.293-8.2148-1.4922-16.613-2.4258-24.828-2.8008-8.3984-0.375-16.613 0-24.828 0.93359-16.613 1.8672-32.852 6.3477-47.973 13.254-30.238 13.625-55.625 36.773-71.492 64.773-15.867 28-22.398 60.668-17.547 90.906h37.332c1.3086-5.7852 2.6133-11.199 4.4805-16.613 1.8672-5.4141 3.7344-10.453 6.1602-15.492 2.4258-4.8516 5.0391-9.707 7.8398-14.188 2.9883-4.4805 5.9727-8.7734 9.5195-12.691 13.625-16.055 30.988-28 49.652-34.535 4.668-1.6797 9.5195-2.9883 14.188-3.9219 4.8516-0.93359 9.707-1.6797 14.559-2.0547 4.8516-0.375 9.8945-0.1875 14.746 0 4.8516 0.375 9.707 0.93359 14.559 2.0547 9.5195 2.0547 18.668 5.4141 27.254 10.078 4.293 2.4258 8.3984 5.0391 12.32 7.8398 3.9219 2.9883 7.4648 6.1602 11.012 9.5195 13.812 13.812 23.52 31.547 27.441 50.586 1.1211 4.8516 1.6797 9.707 2.0547 14.559s0.1875 9.8945 0 14.746c-0.375 4.8516-1.1211 9.707-2.0547 14.559-1.1211 4.8516-2.4258 9.5195-4.293 14.188-6.9062 18.48-19.414 35.281-35.84 47.414-8.2148 5.9727-17.172 11.012-26.879 14.746-4.8516 1.8672-9.8945 3.1719-14.934 4.4805-5.0391 1.1211-10.266 1.8672-15.68 2.4258l-30.055 3.3594 2.6133 24.078 8.7734 80.266h37.332l5.7852-53.387c23.895-2.4258 47.414-10.453 67.945-23.332 27.812-17.172 50.398-43.121 63.652-73.734 6.7188-15.121 11.012-31.547 12.879-47.973 1.1328-8.7617 1.3203-16.977 1.1328-25.375z"/>
  <path d="m383.41 493.55c0 22.578-18.305 40.879-40.879 40.879-22.578 0-40.883-18.301-40.883-40.879s18.305-40.879 40.883-40.879c22.574 0 40.879 18.301 40.879 40.879"/>
 </g>
</svg>
