<?xml version="1.0" encoding="UTF-8"?>
<svg width="700pt" height="700pt" version="1.1" viewBox="0 0 700 700" xmlns="http://www.w3.org/2000/svg">
 <path d="m181.79 161.14c-1.3203 0-2.3867 0.80078-2.3867 1.7891v1.6875h-70.109c-1.6914 0-3.1367 1.4531-3.1367 3.1406v11.211c-0.57422 0.43359-1.2305 0.80078-1.8672 1.043-0.82031 0.3125-1.5781 0.42578-2.2148 0.51953-0.027344-1.5938-0.054687-2.9766-0.10938-4.0703-0.082031-1.9844-0.19141-3.2344-0.41406-4.3164-0.21875-1.082-0.84375-2.3516-1.6602-3.0273-1.2344-1.0312-2.8125-1.5117-4.8086-1.7969-1.9961-0.28516-4.6406-0.42578-8.6562-0.52734-2.0078-0.054687-4.3398-0.082031-6.8789-0.082031-7.6172 0-17.07 0.32422-25.281 1.7188-0.77734 0.13672-1.5234 0.27734-2.25 0.42188-0.35156 0.054688-0.75391 0.10938-1.1836 0.19141-13.203 2.4766-22.238 7.6016-29.535 14.27-3.3125 3.0273-6.3086 6.3945-8.9219 9.9922-0.082031 0.10938-0.27734 0.32031-0.51172 0.64062-0.96094 1.2773-1.9141 2.7109-2.8008 4.4141-1.6719 2.8359-3.1172 5.7734-4.2656 8.7891-3.375 8.8594-4.1758 18.129-4.375 52.703-0.054687 10.211-0.054687 22.77 0.007813 36.121-0.41797 26.648-0.51172 54.562-0.39844 74.207 0.19141 34.574 1 43.844 4.375 52.703s9.2031 17.164 16.5 23.832c7.2969 6.668 16.328 11.793 29.535 14.27 2.0391 0.38281 4.1719 0.69531 6.3398 0.96094 10.477 1.5156 22.523 1.4844 30.031 1.2969 4.0117-0.10938 6.6562-0.25 8.6523-0.52734 1.9961-0.28516 3.5742-0.76563 4.8086-1.7969 0.30859-0.25 0.87891-0.86328 1.2031-1.5156 0.10938-0.25 0.21875-0.48047 0.28906-0.71875 0.54297 0.054687 1.0859 0.13672 1.6289 0.19141 0.9375 0.10938 1.8594 0.19141 2.7578 0.21875v0.82422c0 1.6914 1.4453 3.1328 3.1367 3.1328h481.45c1.6914 0 3.1367-1.4453 3.1367-3.1328v-0.082031c0.82031-0.054687 1.6484-0.10938 2.4961-0.19141 1.0117-0.10938 2.0234-0.25 3.0352-0.35938 0.10938 0.10938 0.21875 0.25 0.29297 0.30078 1.2344 1.0312 2.8125 1.5117 4.8086 1.7969s4.6406 0.42578 8.6523 0.52734c7.5078 0.19141 19.555 0.21875 30.031-1.2969l0.027343-0.003906c2.1562-0.27734 4.2812-0.57422 6.3125-0.95312 13.203-2.4766 22.238-7.6016 29.535-14.27 7.2969-6.668 13.125-14.973 16.5-23.832s4.1758-18.129 4.375-52.703c0.10938-19.645 0.019531-47.555-0.39844-74.207v-0.054687-0.003907c0.054688-13.324 0.082031-25.863 0.011719-36.055-0.19141-34.574-1-43.844-4.375-52.703-1.1484-3.0117-2.5898-5.9531-4.2656-8.7891-0.89062-1.7031-1.8398-3.1328-2.8008-4.4141-0.25-0.31641-0.41797-0.52344-0.51172-0.64062-2.6133-3.5977-5.6094-6.9648-8.9219-9.9922-7.2969-6.668-16.328-11.793-29.535-14.27-0.43359-0.082031-0.83203-0.13672-1.1836-0.19141-0.72656-0.13672-1.4727-0.28906-2.25-0.42188-8.207-1.3945-17.66-1.7188-25.277-1.7188-2.5391 0-4.8711 0.027343-6.875 0.082031-4.0117 0.10938-6.6602 0.25-8.6562 0.52734-1.9961 0.28516-3.5742 0.76562-4.8086 1.7969-0.81641 0.67969-1.4336 1.9492-1.6602 3.0273-0.21875 1.082-0.32422 2.332-0.41406 4.3164-0.054688 1.5273-0.10938 3.6641-0.13672 6.1992-0.66406-0.10938-1.4961-0.19141-2.3867-0.54688-0.54297-0.21875-1.0898-0.51953-1.6016-0.875v-12.148c0-1.6914-1.4453-3.1406-3.1367-3.1406h-348.31v-1.3906c0-1.1562-1.0625-2.0859-2.3867-2.0859h-23.828c-1.3242 0-2.3867 0.92969-2.3867 2.0859v1.3906h-5.8242v-1.6875c0-0.99219-1.0625-1.7891-2.3867-1.7891zm-70.043 9.0664h476.54v287.26h-476.54zm508.69 1.5156c7.4297 0 16.652 0.34375 24.215 1.6289 0.72656 0.10938 1.4375 0.25 2.1406 0.40234l0.054687 0.011719 0.054688 0.007812c0.40625 0.082031 0.78125 0.13672 1.0938 0.19141 12.191 2.2852 19.824 6.6836 26.418 12.715 3.0156 2.7578 5.7539 5.8359 8.1289 9.1133l0.054687 0.10938c0.21875 0.28516 0.37891 0.47266 0.44531 0.55859 0.83594 1.1133 1.5781 2.2227 2.2891 3.5977l0.10938 0.16406c1.5195 2.5703 2.8164 5.2188 3.832 7.8906 2.9766 7.8086 3.7617 15.996 3.9609 50.477 0.054687 10.18 0.054687 22.723-0.011719 36.055v0.054687c0.41797 26.617 0.51172 54.531 0.39844 74.137-0.19141 34.48-0.98438 42.668-3.9609 50.477-2.9766 7.8086-8.2578 15.375-14.852 21.402-6.5938 6.0273-14.227 10.426-26.418 12.715-1.8672 0.35156-3.8711 0.64844-5.9336 0.89844h-0.03125l-0.054687 0.011719c-9.7773 1.418-21.652 1.4258-29.012 1.2422-3.9219-0.10938-6.4375-0.25-7.9141-0.46484-1.1172-0.16406-1.1367-0.25-1.2422-0.29297-0.10938-0.73437-0.21875-2.2617-0.29297-5.2383-0.13672-6.2773-0.13672-18.395-0.13672-41.793 0-46.797 0-138.91 0.19141-186.32 0.027344-9.2891 0.082031-16.805 0.19141-22.965v-0.054687c0.015625-12.469 0.082031-19.328 0.25-23.02 0.082031-1.5977 0.16406-2.3555 0.25-2.8516 0.13672-0.054687 0.10938-0.13672 1.1836-0.28125 1.4766-0.21875 3.9922-0.36719 7.9141-0.46484 1.9609-0.054687 4.2422-0.082031 6.7188-0.082031zm-540.89 1.3398c2.4766 0 4.7578 0.027344 6.7188 0.082031 3.9219 0.10938 6.4375 0.25 7.9141 0.46484 1.0664 0.16406 1.0586 0.21875 1.1836 0.28125 0.082031 0.49609 0.16406 1.2539 0.25 2.8516 0.16406 3.6953 0.21875 10.555 0.25 23.02v0.054688c0.10938 6.1602 0.16406 13.676 0.19141 22.965 0.19141 47.402 0.19141 139.52 0.19141 186.32 0 23.398-0.003906 35.516-0.13672 41.793-0.082031 2.9805-0.19141 4.5039-0.29297 5.2383-0.10938 0.054688-0.10938 0.13672-1.2422 0.29297-1.4727 0.21875-3.9883 0.36719-7.9141 0.46484-7.3594 0.19141-19.234 0.19141-29.012-1.2422 0.10937 0.015625 0.10937 0.015625-0.019532-0.003906l-0.027344-0.007813-0.027343-0.003906c-2.0625-0.25-4.0664-0.54688-5.9336-0.89844-12.191-2.2852-19.82-6.6836-26.418-12.715-6.5938-6.0273-11.875-13.594-14.852-21.402-2.9766-7.8086-3.7617-15.996-3.957-50.477-0.10937-19.605-0.019531-47.52 0.39844-74.137v-0.054688c-0.054688-13.332-0.054688-25.871-0.007812-36.055 0.19141-34.48 0.98437-42.668 3.9609-50.477 1.0156-2.6719 2.3125-5.3203 3.832-7.8906l0.10938-0.16406c0.71094-1.3711 1.4531-2.4844 2.2891-3.5977 0.054687-0.082031 0.21875-0.27734 0.44531-0.55469l0.054688-0.10938c2.375-3.2773 5.1133-6.3594 8.1289-9.1133 6.5938-6.0273 14.227-10.426 26.418-12.715 0.3125-0.054687 0.6875-0.10938 1.0938-0.19141l0.054687-0.007813 0.054688-0.011718c0.70703-0.13672 1.418-0.27734 2.1406-0.40234 7.5664-1.2852 16.785-1.6289 24.219-1.6289zm49.184 5.5547c-1.2695 0-2.2891 1.0938-2.2891 2.4531v264.16c0 1.3594 1.0234 2.4531 2.2891 2.4531h444.57c1.2695 0 2.2891-1.0938 2.2891-2.4531v-264.16c0-1.3594-1.0234-2.4531-2.2891-2.4531zm490.03 9.5352c-1.3203 0-2.3828 1.0625-2.3828 2.3828v3.9648h-4.4648c-1.3203 0-2.3867 1.0625-2.3867 2.3828 0 1.3203 1.0625 2.3828 2.3867 2.3828h4.4648v4.5078c0 1.3203 1.0625 2.3828 2.3828 2.3828 1.3203 0 2.3828-1.0625 2.3828-2.3828v-4.5078h4.0078c1.3242 0 2.3867-1.0625 2.3867-2.3828 0-1.3203-1.0625-2.3828-2.3867-2.3828h-4.0078v-3.9648c0-1.3242-1.0625-2.3828-2.3828-2.3828zm-545.02 7.9453c-1.3203 0-2.3828 1.0625-2.3828 2.3867v2.6445c0 1.3203 1.0625 2.3867 2.3828 2.3867h12.18c1.3203 0 2.3867-1.0625 2.3867-2.3867v-2.6445c0-1.3242-1.0625-2.3867-2.3867-2.3867zm92.082 7.4141h369.32c1.2773 0 2.3086 1.0898 2.3086 2.4453v214.39c0 1.3516-1.0273 2.4453-2.3086 2.4453h-369.32c-1.2773 0-2.3086-1.0898-2.3086-2.4453v-214.39c0-1.3516 1.0273-2.4453 2.3086-2.4453zm480.21 7.6797v0.003906c-2.9492 0-5.7812 1.1719-7.8672 3.2578-2.0859 2.0859-3.2578 4.9141-3.2578 7.8633 0 2.9531 1.1719 5.7812 3.2578 7.8672 2.0859 2.0859 4.918 3.2578 7.8672 3.2578 2.9492 0 5.7773-1.1719 7.8633-3.2578 2.0859-2.0859 3.2578-4.9141 3.2578-7.8672 0-2.9492-1.1719-5.7773-3.2578-7.8633-2.0859-2.0859-4.9141-3.2578-7.8633-3.2578zm-594.81 13.508v0.003907c-6.1797 0-12.109 2.4531-16.48 6.8242-4.3672 4.3711-6.8242 10.297-6.8242 16.48 0 6.1797 2.4531 12.109 6.8242 16.48s10.301 6.8242 16.48 6.8242c6.1797 0 12.109-2.4531 16.48-6.8242 4.3672-4.3711 6.8242-10.301 6.8242-16.48 0-6.1836-2.457-12.109-6.8242-16.48-4.3711-4.3711-10.301-6.8242-16.48-6.8242zm616.79 9.0039c-2.9492 0-5.7773 1.1719-7.8633 3.2578-2.0859 2.0859-3.2578 4.918-3.2578 7.8672s1.1719 5.7773 3.2578 7.8633 4.9141 3.2578 7.8633 3.2578 5.7812-1.1719 7.8672-3.2578c2.0859-2.0859 3.2578-4.9141 3.2578-7.8633s-1.1719-5.7812-3.2578-7.8672c-2.0859-2.0859-4.918-3.2578-7.8672-3.2578zm-45.023 0.52734v0.003907c-2.9492 0-5.7773 1.1719-7.8633 3.2578-2.0859 2.0859-3.2578 4.9141-3.2578 7.8633 0 2.9531 1.1719 5.7812 3.2578 7.8672 2.0859 2.0859 4.9141 3.2578 7.8633 3.2578 2.9531 0 5.7812-1.1719 7.8672-3.2578 2.0859-2.0859 3.2578-4.9141 3.2578-7.8672 0-2.9492-1.1719-5.7773-3.2578-7.8633-2.0859-2.0859-4.9141-3.2578-7.8672-3.2578zm23.57 21.98v0.003907c-2.9492 0-5.7773 1.1719-7.8633 3.2578s-3.2578 4.918-3.2578 7.8672c0 2.9492 1.1719 5.7773 3.2578 7.8633 2.0859 2.0859 4.9141 3.2578 7.8633 3.2578 2.9531 0 5.7812-1.1719 7.8672-3.2578 2.0859-2.0859 3.2578-4.9141 3.2578-7.8633 0-2.9492-1.1719-5.7812-3.2578-7.8672-2.0859-2.0859-4.9141-3.2578-7.8672-3.2578zm0 41.578v0.003906c-6.1797 0-12.105 2.457-16.477 6.8281-4.3711 4.3711-6.8281 10.297-6.8281 16.48 0.003906 6.1797 2.457 12.105 6.8281 16.477 4.3711 4.3711 10.297 6.8242 16.477 6.8281 6.1836 0 12.109-2.457 16.48-6.8281 4.3711-4.3711 6.8281-10.297 6.8281-16.477 0-6.1836-2.457-12.113-6.8281-16.48-4.3711-4.3711-10.297-6.8281-16.48-6.8281zm-595.87 2.1211v0.003906c-2.9492 0-5.7773 1.1719-7.8633 3.2578-2.0859 2.0859-3.2578 4.9141-3.2578 7.8633s1.1719 5.7812 3.2578 7.8672c2.0859 2.0859 4.9141 3.2578 7.8633 3.2578s5.7812-1.1719 7.8672-3.2578c2.0859-2.0859 3.2578-4.918 3.2578-7.8672s-1.1719-5.7773-3.2578-7.8633c-2.0859-2.0859-4.918-3.2578-7.8672-3.2578zm0.39453 6.6094c0.73438 0 4.9531 7.3086 4.5859 7.9453-0.36719 0.63672-8.8047 0.63672-9.1719 0-0.36719-0.63672 3.8516-7.9453 4.5859-7.9453zm21.59 15.902c-2.9492 0-5.7773 1.1719-7.8633 3.2578-2.0898 2.0859-3.2617 4.918-3.2578 7.8672-0.003906 2.9492 1.168 5.7773 3.2578 7.8633 2.0859 2.0859 4.9141 3.2578 7.8633 3.2578 2.9492 0 5.7773-1.1719 7.8633-3.2578s3.2578-4.9141 3.2578-7.8633-1.1719-5.7812-3.2578-7.8672c-2.0859-2.0859-4.9141-3.2578-7.8633-3.2578zm-45.023 0.52734v0.003907c-2.9492 0-5.7773 1.1719-7.8633 3.2578-2.0859 2.0859-3.2578 4.9141-3.2578 7.8633 0 2.9531 1.1719 5.7812 3.2578 7.8672s4.9141 3.2578 7.8633 3.2578c2.9531 0 5.7812-1.1719 7.8672-3.2578 2.0859-2.0859 3.2578-4.9141 3.2578-7.8672 0-2.9492-1.1719-5.7773-3.2578-7.8633-2.0859-2.0859-4.918-3.2578-7.8672-3.2578zm42.352 6.3281c1.3242 0.16406 7.75 3.9141 7.75 4.6016 0 0.73438-7.3086 4.9531-7.9453 4.5859-0.63672-0.36719-0.63672-8.8086 0-9.1719 0.027344-0.023437 0.10938-0.027343 0.19141-0.019531zm-39.332 0.13672c0.082031-0.011718 0.16406-0.003906 0.19141 0.019532 0.31641 0.19141 0.47656 2.3867 0.47656 4.5859 0 2.2031-0.16406 4.4062-0.47656 4.5859-0.63672 0.36719-7.9453-3.8555-7.9453-4.5859 0-0.6875 6.4258-4.4414 7.75-4.6055zm20.551 15.52v0.003906c-2.9492 0-5.7773 1.1719-7.8633 3.2578-2.0859 2.0859-3.2578 4.9141-3.2578 7.8633 0 2.9531 1.1719 5.7812 3.2578 7.8672 2.0859 2.0859 4.9141 3.2578 7.8633 3.2578 2.9531 0 5.7812-1.1719 7.8672-3.2578 2.0859-2.0859 3.2578-4.9141 3.2578-7.8672 0-2.9492-1.1719-5.7773-3.2578-7.8633-2.0859-2.0859-4.9141-3.2578-7.8672-3.2578zm0 7.9961c2.2031 0 4.4023 0.16406 4.5859 0.47656 0.36719 0.63672-3.8555 7.9453-4.5859 7.9453-0.73438 0-4.9531-7.3086-4.5859-7.9453 0.19141-0.31641 2.3867-0.47656 4.5859-0.47656zm572.83 18.129c-6.7578 0-12.273 5.5156-12.27 12.273 0 6.7578 5.5117 12.27 12.27 12.27 6.7578 0 12.27-5.5117 12.273-12.27 0-6.7578-5.5117-12.273-12.273-12.273zm0 3.2539c5 0 9.0156 4.0195 9.0156 9.0195s-4.0195 9.0156-9.0156 9.0156c-5 0-9.0156-4.0195-9.0156-9.0156 0-5 4.0156-9.0195 9.0156-9.0195zm0.082031 2.957v0.007813c-1.6211 0-3.1758 0.64062-4.3203 1.7891-1.1445 1.1445-1.7891 2.6992-1.7891 4.3203 0 1.6211 0.64453 3.1758 1.7891 4.3203 1.1445 1.1484 2.6992 1.7891 4.3203 1.7891 3.375 0 6.1133-2.7344 6.1133-6.1094s-2.7383-6.1094-6.1133-6.1094zm-562.04 2.0898c-1.3203 0-2.3867 1.0625-2.3867 2.3867v15.355c0 1.3242 1.0625 2.3867 2.3867 2.3867h15.355c1.3242 0 2.3867-1.0625 2.3867-2.3867v-15.355c0-1.3242-1.0625-2.3867-2.3867-2.3867zm7.5234 2.9688c3.9883 0 7.25 3.2617 7.25 7.25s-3.2617 7.25-7.25 7.25-7.25-3.2617-7.25-7.25 3.2617-7.25 7.25-7.25zm0 2.5352c-2.6172 0-4.7109 2.0938-4.7109 4.7109 0 2.6172 2.0938 4.7109 4.7109 4.7109s4.7109-2.0938 4.7109-4.7109c0-2.6172-2.0938-4.7109-4.7109-4.7109z"/>
</svg>
